<?xml version="1.0" encoding="UTF-8" standalone="no"?>
<!-- Created with Inkscape (http://www.inkscape.org/) -->

<svg
   xmlns:dc="http://purl.org/dc/elements/1.1/"
   xmlns:cc="http://creativecommons.org/ns#"
   xmlns:rdf="http://www.w3.org/1999/02/22-rdf-syntax-ns#"
   xmlns:svg="http://www.w3.org/2000/svg"
   xmlns="http://www.w3.org/2000/svg"
   xmlns:sodipodi="http://sodipodi.sourceforge.net/DTD/sodipodi-0.dtd"
   xmlns:inkscape="http://www.inkscape.org/namespaces/inkscape"
   width="1600"
   height="900"
   viewBox="0 0 423.33333 238.125"
   version="1.1"
   id="svg8"
   inkscape:version="0.92.3 (2405546, 2018-03-11)"
   sodipodi:docname="1d9-card.svg"
   inkscape:export-filename="/home/luke/projects/lukekaalim/hackathon-15/web/public/images/1d9-card.png"
   inkscape:export-xdpi="399.60001"
   inkscape:export-ydpi="399.60001">
  <defs
     id="defs2">
    <clipPath
       clipPathUnits="userSpaceOnUse"
       id="clipPath4912">
      <path
         d="m 111.56,748.005 h 144 v 15.484 h -144 z"
         id="path4910"
         inkscape:connector-curvature="0" />
    </clipPath>
  </defs>
  <sodipodi:namedview
     id="base"
     pagecolor="#ffffff"
     bordercolor="#666666"
     borderopacity="1.0"
     inkscape:pageopacity="0.0"
     inkscape:pageshadow="2"
     inkscape:zoom="0.49497475"
     inkscape:cx="618.55615"
     inkscape:cy="640.91663"
     inkscape:document-units="mm"
     inkscape:current-layer="layer1"
     showgrid="false"
     units="px"
     inkscape:window-width="791"
     inkscape:window-height="419"
     inkscape:window-x="335"
     inkscape:window-y="170"
     inkscape:window-maximized="0" />
  <metadata
     id="metadata5">
    <rdf:RDF>
      <cc:Work
         rdf:about="">
        <dc:format>image/svg+xml</dc:format>
        <dc:type
           rdf:resource="http://purl.org/dc/dcmitype/StillImage" />
        <dc:title></dc:title>
      </cc:Work>
    </rdf:RDF>
  </metadata>
  <g
     inkscape:label="Layer 1"
     inkscape:groupmode="layer"
     id="layer1"
     transform="translate(0,-58.875)">
    <rect
       style="opacity:1;vector-effect:none;fill:#e24848;fill-opacity:1;fill-rule:evenodd;stroke:none;stroke-width:2;stroke-linecap:round;stroke-linejoin:miter;stroke-miterlimit:4;stroke-dasharray:none;stroke-dashoffset:0;stroke-opacity:1"
       id="rect834"
       width="424.42398"
       height="238.40442"
       x="-1.0690781"
       y="58.595581" />
    <flowRoot
       xml:space="preserve"
       id="flowRoot836"
       style="fill:black;fill-opacity:1;stroke:none;font-family:sans-serif;font-style:normal;font-weight:normal;font-size:40px;line-height:1.25;letter-spacing:0px;word-spacing:0px"><flowRegion
         id="flowRegion838"><rect
           id="rect840"
           width="1457.1428"
           height="457.14285"
           x="68.571426"
           y="81.428574" /></flowRegion><flowPara
         id="flowPara842"></flowPara></flowRoot>    <g
       transform="matrix(2.4316598,0,0,-2.4316598,-234.30973,2002.3708)"
       id="g4906"
       style="fill:#ffffff;fill-opacity:1">
      <g
         id="g4908"
         clip-path="url(#clipPath4912)"
         style="fill:#ffffff;fill-opacity:1">
        <g
           id="g4914"
           transform="translate(253.3531,757.9074)"
           style="fill:#ffffff;fill-opacity:1">
          <path
             d="M 0,0 C 0.386,0 0.386,-0.567 0,-0.567 H -0.526 V 0 Z M 0.379,-0.996 C 1.281,-0.792 1.096,0.587 0,0.587 h -1.182 v -2.481 h 0.656 v 0.771 h 0.23 l 0.59,-0.771 h 0.704 v 0.143 z m -0.587,-1.596 c 1.169,0 1.827,0.854 1.827,1.938 0,1.079 -0.658,1.933 -1.827,1.933 -1.162,0 -1.82,-0.854 -1.826,-1.933 0.006,-1.084 0.664,-1.938 1.826,-1.938 m 2.414,1.938 c 0,-1.322 -0.868,-2.437 -2.413,-2.437 -1.54,0 -2.408,1.115 -2.408,2.437 0,1.319 0.868,2.431 2.408,2.431 1.545,0 2.413,-1.112 2.413,-2.431"
             style="fill:#ffffff;fill-opacity:1;fill-rule:nonzero;stroke:none"
             id="path4916"
             inkscape:connector-curvature="0" />
        </g>
        <g
           id="g4918"
           transform="translate(180.7682,759.1288)"
           style="fill:#ffffff;fill-opacity:1">
          <path
             d="M 0,0 C -0.033,0.258 -0.015,0.523 0.061,0.761 L 0.397,1.808 0.819,0.794 C 0.942,0.499 1.201,0.284 1.508,0.088 1.481,0.575 1.568,1.116 1.742,1.488 1.706,2.273 2.249,2.86 2.897,2.86 c 1.109,0 1.406,-1.342 0.891,-2.303 0.239,-0.36 0.603,-0.694 0.925,-0.984 0.115,-0.104 0.224,-0.202 0.32,-0.294 0.03,-0.031 0.046,-0.058 0.076,-0.088 0.482,0.653 0.835,1.563 0.835,2.251 0,1.426 -0.927,2.749 -2.855,2.853 C 1.866,4.36 1.04,3.983 0.425,3.356 0.147,3.071 -0.472,2.353 -0.354,1.053 -0.309,0.563 -0.145,0.221 0,0 M 5.169,-6.596 C 4.728,-7.343 3.804,-8.308 2.864,-8.308 c -1.733,0 -2.602,2.448 -0.67,4.456 -0.109,0.035 -0.215,0.04 -0.252,0.04 -0.163,0 -0.323,-0.043 -0.428,-0.115 L 0.659,-4.661 0.9,-3.466 c 0.015,0.041 0.03,0.081 0.047,0.121 -0.429,-0.218 -0.845,-0.519 -1.005,-0.693 l -0.774,-0.843 0.078,1.189 0.053,0.262 c 0.04,0.185 0.088,0.416 0.059,0.491 -0.01,0.023 -0.028,0.041 -0.05,0.057 -0.359,-0.277 -1.335,-1.139 -1.45,-2.42 0,0 0.19,0.269 0.356,0.332 0.109,0.042 0.204,-0.012 0.1,-0.332 -0.04,-0.125 -0.99,-2.694 0.877,-4.472 0,0 -0.205,0.521 -0.081,0.681 0.06,0.076 0.138,0.083 0.248,-0.055 0.079,-0.107 0.162,-0.209 0.253,-0.309 v -0.002 l 0.001,10e-4 c 0.154,-0.176 0.324,-0.342 0.509,-0.485 0.558,-0.39 1.317,-0.705 2.18,-0.705 2.299,0 3.518,1.575 4.198,2.908 -0.031,0.038 -0.054,0.077 -0.096,0.114 -0.348,0.306 -0.852,0.724 -1.234,1.03 m 5.222,4.555 C 8.673,-2.124 7.201,-3.58 6.439,-4.61 6.575,-4.656 6.712,-4.719 6.848,-4.827 7.007,-4.955 7.24,-5.145 7.491,-5.353 c 0.204,0.45 0.663,1.36 1.367,2.167 0.643,0.736 1.763,0.807 2.35,0.358 0.378,0.343 1.682,0.664 2.369,0.469 -0.417,0.455 -1.307,1.065 -2.289,1.065 -0.81,0 -1.268,-0.398 -1.385,-0.219 -0.149,0.228 0.548,0.567 0.548,0.567 -0.957,-0.04 -1.652,-1.164 -1.942,-1.026 -0.173,0.084 0.258,0.628 0.258,0.628 -0.875,-0.508 -1.608,-1.585 -1.76,-2.24 0.805,0.985 2.368,1.692 3.384,1.543 m 35.351,-4.702 c -0.06,0.094 -0.097,0.176 -0.097,0.503 v 2.151 c 0,0.325 0.029,0.386 0.091,0.483 0.067,0.107 0.184,0.265 0.185,0.266 l 0.04,0.053 -0.059,0.031 c -0.007,0.004 -0.156,0.082 -0.322,0.099 V -3.16 c -0.044,0.003 -3.395,0.003 -3.395,0.003 l 0.171,-0.105 c 0,0 0.5,-0.304 0.724,-0.445 0.218,-0.137 0.33,-0.293 0.33,-0.768 v -1.171 c -0.253,-0.08 -0.512,-0.117 -0.821,-0.117 -1.368,0 -2.061,0.74 -2.061,2.195 0,1.388 0.759,2.183 2.083,2.183 0.83,0 1.703,-0.189 2.765,-0.99 l -0.005,0.057 -0.244,2.307 -0.019,0.17 -0.165,0.039 -0.162,0.038 c -0.71,0.164 -0.987,0.207 -1.408,0.261 -0.249,0.03 -0.385,0.045 -0.698,0.045 0,0 -0.088,0.001 -0.134,0.001 -2.495,0 -4.308,-1.746 -4.308,-4.152 0,-2.368 1.822,-4.088 4.331,-4.088 0.439,0 1.284,0.081 1.816,0.192 0.101,0.021 0.159,0.037 0.238,0.056 0.017,0.004 0.034,0.007 0.052,0.011 0.3,0.072 0.605,0.149 0.914,0.243 l 0.39,0.121 -0.046,0.064 c -0.002,0.002 -0.118,0.159 -0.186,0.267 m 18.333,7.168 h -4.519 l 0.17,-0.103 c 0.004,-0.003 0.436,-0.269 0.702,-0.443 0.241,-0.161 0.332,-0.27 0.332,-0.787 V -2.839 L 57.424,0.426 V 0.425 h -2.653 l 0.158,-0.102 c 0.004,-0.003 0.41,-0.268 0.644,-0.438 0.231,-0.169 0.341,-0.34 0.341,-0.858 v -5.255 c 0,-0.515 -0.093,-0.624 -0.324,-0.767 -0.254,-0.156 -0.75,-0.443 -0.756,-0.445 l -0.18,-0.105 h 4.53 l -0.181,0.105 c -0.005,0.003 -0.508,0.292 -0.751,0.445 -0.227,0.143 -0.326,0.26 -0.326,0.767 v 3.17 l 4.845,-4.744 v 6.894 c 0,0.514 0.086,0.619 0.332,0.787 0.268,0.182 0.761,0.438 0.767,0.441 z m -29.056,-4.683 -0.719,1.96 -0.781,-1.96 z m -7.413,2.41 c 0,0.408 -0.266,0.681 -1.034,0.684 l -0.267,-0.002 v -1.858 c 0.112,-0.002 0.224,-0.002 0.264,-0.002 0.506,0 1.037,0.112 1.037,1.178 m 11.091,-5.168 0.674,-0.529 h -4.169 c 0,0 0.354,0.339 0.513,0.506 0.138,0.145 0.209,0.289 0.106,0.535 -0.023,0.06 -0.071,0.19 -0.129,0.355 h -2.889 c -0.058,-0.159 -0.105,-0.287 -0.135,-0.355 -0.117,-0.286 -0.091,-0.367 0.072,-0.521 0.177,-0.171 0.612,-0.519 0.612,-0.519 l -4.373,-0.001 -2.006,2.42 -0.006,0.006 -0.003,0.005 c -0.218,0.299 -0.383,0.469 -0.535,0.549 -0.02,0.011 -0.057,0.024 -0.124,0.039 v -1.701 c 0,-0.5 0.095,-0.591 0.331,-0.771 0.242,-0.185 0.948,-0.547 0.948,-0.547 h -4.662 c 0,0 0.713,0.399 0.934,0.549 0.206,0.139 0.329,0.261 0.329,0.769 v 5.309 c 0,0.492 -0.107,0.645 -0.332,0.785 -0.233,0.145 -0.704,0.442 -0.704,0.442 l -0.165,0.105 c 0,0 3.584,0.001 3.795,0.001 0.729,-0.011 1.02,-0.033 1.425,-0.156 0.976,-0.281 1.581,-1.093 1.581,-2.118 0,-0.477 -0.135,-0.92 -0.388,-1.28 -0.189,-0.281 -0.443,-0.514 -0.733,-0.677 0.834,-1.115 1.493,-1.945 1.899,-2.391 0.027,0.047 2.414,5.812 2.414,5.812 0.008,0.041 0.013,0.078 0.013,0.109 0,0.041 0,0.089 -0.12,0.198 l -0.564,0.514 h 3.142 c 0,0 2.616,-6.635 2.635,-6.675 h -0.002 c 0.073,-0.165 0.094,-0.198 0.169,-0.312 0.112,-0.166 0.151,-0.223 0.447,-0.455 m 14.067,3.464 c 0,1.305 -0.827,2.148 -2.108,2.148 -1.229,0 -1.993,-0.843 -1.993,-2.201 0,-1.312 0.809,-2.16 2.057,-2.16 1.202,0 2.044,0.911 2.044,2.213 m 2.294,0 c 0,-2.353 -1.874,-4.128 -4.359,-4.128 -2.502,0 -4.317,1.714 -4.317,4.075 0,2.398 1.805,4.14 4.295,4.14 2.498,0 4.381,-1.757 4.381,-4.087 m 12.311,1.115 c -0.108,0.027 -0.217,0.053 -0.323,0.079 l -0.029,0.006 c -0.759,0.179 -1.255,0.321 -1.255,0.646 0,0.11 0.032,0.196 0.097,0.26 0.134,0.134 0.411,0.209 0.783,0.209 0.062,0 0.127,-0.003 0.19,-0.008 h 0.025 c 0.013,-0.002 0.025,-0.004 0.038,-0.005 0.686,-0.06 1.505,-0.358 2.344,-0.916 l -0.132,2.353 -0.154,0.052 -0.028,0.01 c -0.012,0.004 -0.101,0.034 -0.361,0.091 -0.158,0.035 -0.969,0.21 -1.454,0.245 -0.158,0.012 -0.314,0.017 -0.461,0.017 -1.776,0 -2.814,-0.842 -2.926,-2.372 -0.056,-0.765 0.321,-1.512 0.956,-1.9 0.568,-0.345 1.417,-0.605 2.036,-0.796 l 0.142,-0.043 c 0.388,-0.119 0.834,-0.359 0.773,-0.823 -0.033,-0.242 -0.127,-0.502 -0.856,-0.502 -0.105,0 -0.22,0.005 -0.348,0.017 -0.502,0.044 -1.089,0.331 -1.74,0.85 -0.026,0.022 -0.047,0.039 -0.062,0.048 l -0.402,0.305 -0.415,0.314 0.165,-2.984 0.154,-0.051 0.03,-0.011 c 0.006,-0.001 0.092,-0.029 0.362,-0.089 0.268,-0.06 1.149,-0.213 1.598,-0.245 0.144,-0.011 0.292,-0.017 0.44,-0.017 1.939,0 3.218,0.965 3.256,2.459 0.037,1.438 -0.786,2.381 -2.443,2.801 M 21.096,-3.562 c 0,1.306 -0.674,2.056 -1.848,2.056 h -0.896 v -4.102 h 0.896 c 1.174,0 1.848,0.747 1.848,2.046 m 2.318,0.021 c 0,-0.927 -0.303,-1.839 -0.832,-2.498 -0.233,-0.293 -0.52,-0.556 -0.856,-0.782 -0.791,-0.528 -1.52,-0.724 -2.688,-0.724 h -4.167 l 0.177,0.103 c 10e-4,0.002 0.516,0.303 0.755,0.448 0.231,0.139 0.327,0.275 0.327,0.768 v 4.6 c 0,0.505 -0.14,0.646 -0.338,0.788 -1.028,0.75 -1.114,1.611 -1.117,1.647 L 14.665,0.924 14.761,0.86 C 14.764,0.858 15.107,0.638 15.485,0.551 15.924,0.45 16.527,0.433 17.794,0.433 h 1.603 V 0.426 c 0.799,-0.032 1.385,-0.178 1.96,-0.479 1.288,-0.675 2.057,-1.978 2.057,-3.488 m -59.351,-3.54 c -0.001,0.002 -0.118,0.161 -0.186,0.268 -0.06,0.094 -0.096,0.174 -0.096,0.502 l -10e-4,2.151 c 0,0.325 0.03,0.386 0.091,0.483 0.068,0.107 0.184,0.266 0.185,0.267 l 0.039,0.052 -0.058,0.031 c -0.006,0.004 -0.155,0.082 -0.321,0.099 V -3.23 c -0.044,0.002 -3.395,0.002 -3.395,0.002 l 0.171,-0.104 c 0,0 0.499,-0.306 0.723,-0.444 0.219,-0.138 0.331,-0.296 0.331,-0.769 v -1.171 c -0.253,-0.08 -0.513,-0.116 -0.823,-0.116 -1.366,0 -2.06,0.737 -2.06,2.194 0,1.387 0.76,2.184 2.084,2.184 0.829,0 1.701,-0.192 2.764,-0.992 l -0.005,0.057 -0.244,2.307 -0.017,0.171 -0.167,0.039 -0.161,0.037 c -0.71,0.164 -0.987,0.208 -1.41,0.261 -0.248,0.03 -0.383,0.046 -0.696,0.046 0,0 -0.089,0.001 -0.134,0.001 -2.496,0 -4.308,-1.747 -4.308,-4.152 0,-2.368 1.821,-4.088 4.331,-4.088 0.438,0 1.284,0.081 1.816,0.191 0.101,0.022 0.158,0.037 0.238,0.054 0.016,0.005 0.034,0.009 0.052,0.013 0.301,0.071 0.605,0.148 0.914,0.243 l 0.39,0.121 z m 25.185,7.506 h -4.518 l 0.169,-0.103 c 0.005,-0.004 0.437,-0.269 0.701,-0.444 0.242,-0.16 0.333,-0.269 0.333,-0.786 V -2.84 l -3.335,3.265 h -2.654 l 0.159,-0.103 c 0.004,-0.002 0.41,-0.267 0.644,-0.437 0.232,-0.169 0.341,-0.34 0.341,-0.858 v -5.255 c 0,-0.515 -0.093,-0.624 -0.325,-0.767 -0.255,-0.156 -0.749,-0.443 -0.754,-0.445 l -0.183,-0.105 h 4.533 l -0.183,0.105 c -0.005,0.002 -0.507,0.292 -0.75,0.445 -0.228,0.143 -0.327,0.26 -0.327,0.767 v 3.17 l 4.845,-4.745 v 6.895 c 0,0.513 0.085,0.619 0.332,0.787 0.268,0.182 0.761,0.438 0.767,0.441 z m -6.65,0.001 V 0.425 Z M -43.067,0.425 h -4.518 l 0.17,-0.103 c 0.004,-0.004 0.437,-0.269 0.701,-0.444 0.242,-0.16 0.333,-0.269 0.333,-0.786 V -2.84 l -3.336,3.266 10e-4,-0.001 -5.245,0.001 c -0.156,0 -0.321,-0.096 -0.329,-0.1 l -0.053,-0.031 0.037,-0.051 c 10e-4,-0.001 0.117,-0.159 0.184,-0.266 0.052,-0.081 0.08,-0.137 0.089,-0.35 0,0 -10e-4,-4.055 -10e-4,-4.063 V -4.44 -4.444 l 0.002,-0.031 c -0.013,-0.857 -0.394,-1.292 -1.2,-1.292 -0.819,0 -1.235,0.45 -1.235,1.332 l -0.002,4.063 c 0.007,0.213 0.037,0.269 0.088,0.35 0.068,0.107 0.184,0.265 0.186,0.266 l 0.037,0.051 -0.054,0.031 c -0.008,0.004 -0.174,0.1 -0.33,0.1 l -3.354,-0.001 0.171,-0.103 c 0.004,-0.003 0.436,-0.267 0.704,-0.444 0.241,-0.159 0.332,-0.268 0.332,-0.786 v -3.289 c 0,-0.724 0.087,-1.307 0.25,-1.684 0.118,-0.269 0.302,-0.527 0.565,-0.79 0.685,-0.675 1.548,-1.002 2.639,-1.002 1.515,0 2.702,0.685 3.176,1.828 0.184,0.444 0.245,0.843 0.245,1.584 v 3.353 c 0,0.518 0.092,0.627 0.333,0.786 0.144,0.095 0.334,0.214 0.48,0.305 0.135,-0.09 0.309,-0.207 0.433,-0.298 0.232,-0.169 0.342,-0.34 0.342,-0.858 v -5.255 c 0,-0.515 -0.093,-0.624 -0.326,-0.767 -0.254,-0.156 -0.75,-0.443 -0.753,-0.445 l -0.182,-0.105 h 4.532 l -0.183,0.105 c -0.005,0.002 -0.508,0.292 -0.751,0.445 -0.226,0.143 -0.326,0.26 -0.326,0.767 v 3.17 l 4.844,-4.745 v 6.895 c 0,0.514 0.087,0.619 0.333,0.787 0.268,0.182 0.761,0.438 0.767,0.441 z m 12.41,-6.034 h -1.808 v 1.167 c 0,0 1.647,0.001 1.693,0.001 0.221,0.003 0.461,0.008 0.598,-0.06 0.159,-0.076 0.27,-0.24 0.272,-0.241 l 0.08,-0.121 -0.003,2.554 -0.067,-0.04 c -0.002,-10e-4 -0.109,-0.067 -0.201,-0.107 -0.081,-0.033 -0.136,-0.049 -0.499,-0.049 h -1.873 v 0.995 h 1.876 c 0.482,0 0.587,-0.043 0.862,-0.237 l 0.464,-0.355 -0.245,2.527 h -6.381 l 0.17,-0.103 c 0.004,-0.004 0.437,-0.269 0.7,-0.444 0.241,-0.161 0.333,-0.271 0.333,-0.786 v -5.319 c 0,-0.523 -0.08,-0.616 -0.325,-0.768 -0.244,-0.151 -0.747,-0.443 -0.751,-0.445 l -0.182,-0.105 h 6.616 l 0.592,2.661 c 0,0 -0.533,-0.385 -0.685,-0.479 -0.295,-0.181 -0.525,-0.246 -1.236,-0.246 m 23.199,3.172 c -0.107,0.027 -0.216,0.053 -0.323,0.079 l -0.03,0.006 c -0.757,0.179 -1.253,0.321 -1.253,0.646 0,0.11 0.03,0.196 0.097,0.259 0.133,0.135 0.412,0.21 0.783,0.21 0.062,0 0.126,-0.003 0.19,-0.008 0.008,0 0.016,0 0.023,-10e-4 0.014,-0.001 0.027,-0.003 0.039,-0.004 0.686,-0.06 1.504,-0.358 2.343,-0.916 l -0.13,2.353 -0.154,0.052 -0.029,0.009 c -0.012,0.005 -0.101,0.035 -0.363,0.092 -0.157,0.035 -0.967,0.21 -1.453,0.244 -0.157,0.012 -0.313,0.018 -0.46,0.018 -1.775,0 -2.815,-0.842 -2.926,-2.372 -0.056,-0.765 0.32,-1.512 0.958,-1.9 0.568,-0.345 1.415,-0.606 2.035,-0.796 l 0.142,-0.043 c 0.386,-0.119 0.833,-0.359 0.772,-0.823 -0.031,-0.242 -0.127,-0.502 -0.855,-0.502 -0.105,0 -0.221,0.005 -0.348,0.017 -0.504,0.044 -1.091,0.331 -1.741,0.85 -0.026,0.021 -0.047,0.039 -0.062,0.048 l -0.403,0.305 -0.414,0.314 0.165,-2.984 0.157,-0.051 0.027,-0.011 c 0.006,-0.001 0.091,-0.029 0.362,-0.09 0.268,-0.059 1.149,-0.212 1.597,-0.244 0.145,-0.011 0.294,-0.017 0.44,-0.017 1.941,0 3.219,0.965 3.257,2.459 0.036,1.438 -0.786,2.381 -2.443,2.801 m -55.32,-1.125 c 0,1.306 -0.673,2.056 -1.847,2.056 h -0.896 v -4.102 h 0.896 c 1.174,0 1.847,0.747 1.847,2.046 m 2.317,0.021 c 0,-0.927 -0.303,-1.839 -0.831,-2.498 -0.233,-0.293 -0.52,-0.556 -0.856,-0.782 -0.791,-0.528 -1.519,-0.724 -2.688,-0.724 h -4.168 l 0.178,0.103 c 0,0.002 0.516,0.303 0.756,0.448 0.231,0.139 0.326,0.275 0.326,0.768 v 4.6 c 0,0.505 -0.139,0.646 -0.337,0.788 -1.028,0.75 -1.116,1.611 -1.118,1.647 l -0.01,0.115 0.096,-0.064 c 0.004,-0.002 0.346,-0.222 0.724,-0.309 0.44,-0.101 1.042,-0.118 2.31,-0.118 h 1.602 V 0.426 c 0.799,-0.032 1.385,-0.178 1.96,-0.479 1.287,-0.675 2.056,-1.978 2.056,-3.488 m 38.398,-0.004 c 0,1.305 -0.827,2.149 -2.107,2.149 -1.228,0 -1.991,-0.844 -1.991,-2.203 0,-1.311 0.806,-2.159 2.054,-2.159 1.203,0 2.044,0.91 2.044,2.213 m 2.295,0 c 0,-2.354 -1.875,-4.129 -4.36,-4.129 -2.502,0 -4.317,1.714 -4.317,4.075 0,2.399 1.806,4.139 4.295,4.139 2.498,0 4.382,-1.756 4.382,-4.085 m 24.622,0.8 -0.075,0.244 C 4.771,-2.475 4.582,-1.879 3.945,-1.645 L 3.597,-1.516 3.698,-1.873 C 3.785,-2.179 3.946,-2.745 4.599,-2.745 Z M 0.13,-1.289 c 0.075,0.295 -0.509,0.798 -0.726,0.892 0.801,0.032 1.2,-0.118 1.2,-0.118 C 0.395,-0.207 0.327,0.265 0.446,0.638 0.883,-0.409 2.444,-0.577 2.831,-1.447 2.776,-1.071 2.422,-0.651 2.011,-0.405 1.79,0.166 1.955,1.218 2.224,1.507 2.13,-0.005 4.287,-0.87 4.736,-1.968 4.473,-1.027 3.467,-0.432 2.989,0.133 2.832,0.506 2.954,1.14 3.124,1.356 3.073,0.344 4.166,-0.446 4.751,-1.012 c 0.687,-0.667 0.883,-1.256 0.79,-1.738 0.15,-0.04 0.358,-0.186 0.323,-0.434 0.22,0.051 0.444,0.304 0.497,0.458 0.108,-0.751 -0.334,-1.547 -0.828,-1.784 0,0 0.134,0.359 -0.093,0.633 -0.223,0.271 -0.854,0.275 -1.069,0.258 0,0 0.263,0.389 0.158,0.586 -0.128,0.243 -1.365,0.137 -1.918,-0.064 0.188,0.02 0.635,-0.03 0.79,-0.095 -0.087,-0.129 -0.314,-0.674 -0.15,-0.837 0.15,-0.149 0.347,0.111 0.347,0.111 0,0 -0.193,-0.597 -0.056,-0.735 0.139,-0.137 0.435,-0.04 0.435,-0.04 -0.184,-0.466 -0.904,-0.789 -1.405,-0.789 0.179,0.057 0.475,0.378 0.52,0.568 -0.132,-0.065 -0.475,-0.103 -0.608,-0.079 0.163,0.066 0.489,0.487 0.386,0.956 -0.147,0.687 -1.106,0.774 -1.586,0.442 0.155,0.462 0.621,0.894 0.987,1.035 -0.213,0.075 -0.464,0.138 -0.733,0.186 0.306,0.251 1.076,0.456 1.468,0.434 -0.598,0.155 -1.693,-0.037 -2.194,-0.63 0.159,0 0.573,-0.078 0.733,-0.128 -0.689,-0.125 -1.624,-0.765 -1.901,-1.067 0.073,0.398 0.185,0.734 0.09,0.974 -0.132,0.335 -0.541,0.478 -1.357,0.31 0.551,0.55 1.677,0.892 1.753,1.192 m 12.918,-6.615 c 0,-1.138 -1.132,-2.026 -2.414,-1.845 0.327,-0.305 1.119,-0.512 1.541,-0.321 -0.241,-0.436 -1.401,-1.054 -2.495,-0.764 -1.024,0.273 -1.474,1.252 -1.5,1.874 -0.484,-0.484 -0.353,-1.273 -0.008,-1.585 -0.4,0.104 -1.002,0.519 -1.104,1.264 -0.086,0.64 0.27,1.371 -0.398,1.959 C 6.271,-6.971 5.664,-6.469 5.271,-6.16 4.447,-5.515 4.759,-5.041 4.574,-4.7 4.432,-4.437 4.086,-4.289 3.879,-4.049 3.67,-3.807 3.678,-3.448 3.795,-3.242 3.76,-3.53 3.966,-3.745 4.24,-3.836 c 0.304,-0.1 0.56,-0.017 0.819,-0.168 0.312,-0.18 0.167,-0.667 0.393,-0.84 0.203,-0.153 0.709,0.05 1.141,-0.298 0.434,-0.348 1.406,-1.157 1.825,-1.502 0.753,-0.62 1.53,0.087 1.272,0.797 0.765,-0.453 0.849,-1.72 0.213,-2.162 0.599,-0.136 1.68,0.132 1.68,1 0,0.531 -0.49,0.906 -0.84,0.965 1.229,0.115 2.305,-0.747 2.305,-1.86"
             style="fill:#ffffff;fill-opacity:1;fill-rule:nonzero;stroke:none"
             id="path4920"
             inkscape:connector-curvature="0" />
        </g>
      </g>
    </g>
    <flowRoot
       xml:space="preserve"
       id="flowRoot901"
       style="font-style:normal;font-variant:normal;font-weight:normal;font-stretch:normal;font-size:85.33333588px;line-height:1.25;font-family:'Press Start 2P';-inkscape-font-specification:'Press Start 2P';text-align:center;letter-spacing:0px;word-spacing:0px;text-anchor:middle;fill:#ffffff;fill-opacity:1;stroke:none"
       transform="matrix(0.26458333,0,0,0.26458333,0,56.229166)"><flowRegion
         id="flowRegion903"
         style="font-style:normal;font-variant:normal;font-weight:normal;font-stretch:normal;font-size:85.33333588px;font-family:'Press Start 2P';-inkscape-font-specification:'Press Start 2P';text-align:center;text-anchor:middle;fill:#ffffff;fill-opacity:1"><rect
           id="rect905"
           width="1317.1428"
           height="279.99997"
           x="125.71429"
           y="87.14286"
           style="font-style:normal;font-variant:normal;font-weight:normal;font-stretch:normal;font-size:85.33333588px;font-family:'Press Start 2P';-inkscape-font-specification:'Press Start 2P';text-align:center;text-anchor:middle;fill:#ffffff;fill-opacity:1" /></flowRegion><flowPara
         id="flowPara907"
         style="font-size:64.00000081px">1d9.tech presents:</flowPara></flowRoot>    <flowRoot
       xml:space="preserve"
       id="flowRoot901-6"
       style="font-style:normal;font-variant:normal;font-weight:normal;font-stretch:normal;font-size:53.33333588px;line-height:1.25;font-family:'Press Start 2P';-inkscape-font-specification:'Press Start 2P';text-align:center;letter-spacing:0px;word-spacing:0px;text-anchor:middle;fill:#ffffff;fill-opacity:1;stroke:none"
       transform="matrix(0.26458333,0,0,0.26458333,9.7222905e-7,174.89684)"><flowRegion
         id="flowRegion903-7"
         style="font-style:normal;font-variant:normal;font-weight:normal;font-stretch:normal;font-size:53.33333588px;font-family:'Press Start 2P';-inkscape-font-specification:'Press Start 2P';text-align:center;text-anchor:middle;fill:#ffffff;fill-opacity:1"><rect
           id="rect905-7"
           width="1317.1428"
           height="279.99997"
           x="125.71429"
           y="87.14286"
           style="font-style:normal;font-variant:normal;font-weight:normal;font-stretch:normal;font-size:53.33333588px;font-family:'Press Start 2P';-inkscape-font-specification:'Press Start 2P';text-align:center;text-anchor:middle;fill:#ffffff;fill-opacity:1" /></flowRegion><flowPara
         id="flowPara907-3"
         style="font-size:85.33333441px">The Blind Sands</flowPara></flowRoot>    <rect
       style="opacity:1;vector-effect:none;fill:#ffffff;fill-opacity:1;fill-rule:evenodd;stroke:none;stroke-width:4.28028059;stroke-linecap:round;stroke-linejoin:miter;stroke-miterlimit:4;stroke-dasharray:none;stroke-dashoffset:0;stroke-opacity:1"
       id="rect933"
       width="344.77768"
       height="4.543582"
       x="35.279591"
       y="226.57448" />
  </g>
</svg>
